<?xml version="1.0" standalone="no"?>
<!DOCTYPE svg PUBLIC "-//W3C//DTD SVG 20010904//EN"
 "http://www.w3.org/TR/2001/REC-SVG-20010904/DTD/svg10.dtd">
<svg version="1.0" xmlns="http://www.w3.org/2000/svg"
 width="626.000000pt" height="558.000000pt" viewBox="0 0 626.000000 558.000000"
 preserveAspectRatio="xMidYMid meet">

<g transform="translate(0.000000,558.000000) scale(0.100000,-0.100000)"
fill="#000000" stroke="none">
<path d="M1381 4240 c-19 -4 -43 -19 -52 -32 -24 -31 -49 -104 -49 -143 0 -26
-5 -33 -35 -44 -19 -6 -44 -24 -55 -38 -25 -31 -27 -99 -4 -131 15 -22 14 -26
-26 -83 -52 -75 -113 -205 -134 -289 -10 -36 -20 -108 -23 -161 l-6 -97 46
-43 c25 -24 72 -60 103 -79 55 -33 64 -35 162 -38 l103 -4 -34 49 c-114 160
-143 377 -87 641 8 37 16 52 28 52 24 0 73 35 88 62 20 35 17 71 -10 111 l-24
35 47 44 c74 72 131 99 256 123 l60 11 -80 26 c-87 28 -220 42 -274 28z"/>
<path d="M3274 4144 c0 -9 -5 -19 -12 -21 -8 -3 -10 2 -6 14 5 15 4 15 -5 3
-6 -8 -11 -20 -11 -27 0 -16 28 -43 45 -43 7 0 21 7 29 16 9 8 16 22 16 29 0
17 -27 45 -45 45 -7 0 -12 -7 -11 -16z m42 -25 c3 -6 0 -17 -7 -25 -18 -17
-44 -2 -36 20 7 18 33 21 43 5z"/>
<path d="M3606 4144 c-9 -8 -16 -22 -16 -29 0 -7 7 -21 16 -29 8 -9 22 -16 29
-16 17 0 45 27 45 43 0 7 -5 19 -11 27 -9 12 -10 12 -5 -3 4 -12 2 -17 -6 -14
-7 2 -12 12 -12 21 2 20 -20 21 -40 0z m41 -30 c7 -20 -17 -37 -34 -23 -15 13
-6 39 13 39 8 0 17 -7 21 -16z"/>
<path d="M3417 4032 c-25 -27 -21 -47 14 -76 l31 -26 29 21 c35 25 40 72 10
89 -30 15 -66 12 -84 -8z"/>
<path d="M1458 3923 c12 -2 32 -2 45 0 12 2 2 4 -23 4 -25 0 -35 -2 -22 -4z"/>
<path d="M1590 3910 c8 -5 24 -10 34 -10 26 0 18 6 -19 14 -22 5 -26 4 -15 -4z"/>
<path d="M1740 3865 c14 -8 30 -14 35 -14 6 0 -1 6 -15 14 -14 8 -29 14 -35
14 -5 0 1 -6 15 -14z"/>
<path d="M1791 3846 c2 -2 15 -9 29 -15 24 -11 24 -11 6 3 -16 13 -49 24 -35
12z"/>
<path d="M1850 3817 c0 -3 12 -12 26 -22 15 -9 23 -12 20 -6 -7 11 -46 35 -46
28z"/>
<path d="M1920 3747 c0 -32 -41 -157 -68 -209 -28 -53 -70 -100 -83 -93 -5 4
3 -19 19 -52 30 -59 42 -92 62 -172 l11 -44 45 44 c24 24 42 49 40 56 -3 7 0
12 6 10 6 -1 13 4 16 12 3 9 0 11 -8 6 -9 -5 -11 -4 -6 4 4 6 12 9 17 5 22
-13 89 182 89 262 0 46 -28 90 -99 159 l-41 39 0 -27z m127 -209 c-3 -8 -6 -5
-6 6 -1 11 2 17 5 13 3 -3 4 -12 1 -19z"/>
<path d="M1590 3665 c19 -19 36 -35 39 -35 3 0 -10 16 -29 35 -19 19 -36 35
-39 35 -3 0 10 -16 29 -35z"/>
<path d="M1650 3596 c0 -2 8 -10 18 -17 15 -13 16 -12 3 4 -13 16 -21 21 -21
13z"/>
<path d="M1720 3513 c0 -6 8 -17 18 -24 16 -13 16 -13 2 6 -8 11 -16 22 -17
24 -2 2 -3 0 -3 -6z"/>
<path d="M3099 3050 c-136 -4 -180 -8 -194 -20 -31 -26 -45 -76 -45 -165 l0
-85 -462 0 c-495 0 -493 0 -530 -51 -18 -24 -20 -50 -25 -348 l-6 -322 -26 1
c-64 5 -71 1 -71 -30 0 -25 -4 -30 -25 -30 -21 0 -25 5 -25 30 l0 30 -106 0
c-93 0 -105 2 -100 16 3 9 6 150 6 315 l0 299 89 0 c82 0 91 2 105 22 22 31
20 64 -4 88 -19 19 -31 20 -262 18 l-241 -3 -20 -27 c-18 -24 -18 -30 -7 -57
14 -36 27 -40 130 -43 l75 -3 5 -308 c5 -294 6 -309 25 -323 13 -10 31 -13 54
-9 29 5 33 4 27 -10 -3 -9 -6 -21 -6 -26 0 -5 -20 -9 -45 -9 -41 0 -45 2 -45
25 l0 25 -105 0 -105 0 0 -25 c0 -22 -4 -25 -35 -25 -31 0 -35 3 -35 25 0 24
-2 24 -82 27 l-83 3 0 418 0 419 24 19 c22 18 45 19 466 19 432 0 443 0 469
-21 15 -12 26 -30 26 -45 0 -17 5 -24 20 -24 25 0 26 28 5 70 -31 60 -31 60
-517 60 -474 0 -473 0 -511 -52 -19 -25 -20 -48 -24 -475 -2 -246 -6 -458 -9
-470 -3 -16 -13 -23 -37 -25 l-32 -3 0 -190 0 -190 615 0 615 0 5 50 5 50 323
3 322 2 0 99 0 99 -39 -14 c-69 -23 -181 -31 -393 -26 l-208 5 0 51 c0 59 -12
76 -52 76 -27 0 -28 2 -28 50 l0 50 -40 0 -40 0 -2 213 c-6 434 -6 426 21 448
22 18 45 19 487 19 l464 0 0 -175 0 -175 -45 0 c-26 0 -45 -5 -45 -11 0 -6
-17 21 -37 61 -42 82 -102 140 -183 179 -46 22 -69 26 -140 26 -113 0 -187
-33 -264 -116 -77 -83 -100 -146 -101 -275 0 -96 2 -103 38 -176 111 -225 374
-281 560 -120 49 42 58 48 56 35 -1 -5 -1 -18 0 -30 l1 -23 293 -2 292 -3 3
-32 3 -33 315 0 c203 0 314 4 314 10 0 6 -3 10 -7 10 -5 0 -8 25 -8 55 0 30 4
55 8 55 4 0 6 177 5 394 -2 217 -2 393 0 391 1 -1 17 11 33 26 28 26 67 38 94
28 6 -2 204 -6 442 -9 l432 -5 -17 -22 c-17 -22 -19 -23 -327 -23 -170 0 -357
-3 -415 -7 -105 -6 -105 -6 -142 -43 -21 -20 -39 -33 -40 -28 -2 4 -2 -188 0
-427 l3 -435 -30 0 c-16 0 -32 6 -34 13 -3 6 -6 -19 -6 -56 -1 -63 1 -71 28
-98 l29 -29 408 0 408 0 26 -25 c29 -28 55 -26 63 6 5 17 15 19 101 19 l96 0
14 -35 c21 -49 49 -47 70 5 38 95 71 450 47 508 -24 58 -96 69 -143 21 l-31
-30 6 -145 c4 -132 4 -144 -13 -144 -22 0 -90 49 -118 85 -12 15 -22 23 -22
18 0 -5 5 -14 11 -20 13 -13 4 -33 -15 -33 -10 0 -11 10 -6 40 6 30 3 50 -11
78 -11 21 -28 76 -38 123 -11 46 -20 73 -20 59 -1 -14 -10 -31 -20 -37 -17
-11 -20 -8 -25 23 -8 40 -55 98 -98 120 -16 8 -64 22 -106 30 -42 8 -83 21
-91 29 -23 22 -17 92 9 120 51 54 150 10 150 -67 0 -64 66 -98 118 -62 18 12
22 25 22 70 0 34 -7 69 -19 92 -55 107 -156 158 -262 134 -28 -7 -55 -9 -60
-6 -5 3 -9 2 -7 -3 1 -4 -19 -29 -43 -54 -55 -55 -73 -111 -65 -195 8 -85 10
-93 17 -91 3 1 17 -12 31 -28 35 -41 100 -72 177 -84 91 -15 114 -57 71 -129
-28 -46 -64 -61 -98 -41 -15 9 -26 21 -25 27 2 7 -2 11 -9 9 -7 -1 -15 17 -20
43 -10 57 -48 94 -87 85 -121 -28 -46 -260 98 -304 61 -18 116 -13 173 14 56
27 68 23 68 -26 0 -22 -6 -28 -32 -33 -18 -4 -169 -4 -335 0 l-303 7 0 261 c0
144 -3 331 -7 417 l-6 157 26 26 26 26 191 0 c145 0 190 -3 190 -12 0 -8 3 -9
8 -3 4 6 84 10 205 10 156 0 197 -3 197 -13 0 -7 -4 -10 -10 -7 -6 4 -7 -1 -3
-11 5 -14 10 -10 24 22 10 21 18 44 18 50 1 7 33 20 72 29 54 14 96 16 187 12
64 -3 128 -8 140 -12 l24 -8 -27 54 c-64 126 -118 179 -183 179 -41 0 -117
-68 -153 -135 l-24 -45 -410 0 -410 0 3 50 c4 58 -11 110 -39 136 -20 18 -48
19 -408 24 -212 3 -465 3 -562 0z m-60 -64 c-14 -13 -70 -36 -64 -26 4 6 17
15 29 20 22 9 42 13 35 6z m361 -59 c0 -23 -31 -57 -69 -77 -32 -16 -43 -17
-69 -8 -24 9 -36 9 -59 -2 -15 -8 -48 -21 -73 -30 -40 -13 -46 -20 -55 -55
-14 -54 -26 -73 -50 -75 -44 -5 -45 -3 -45 89 0 103 13 149 43 156 12 2 31 6
42 8 11 3 91 5 178 6 121 1 157 -2 157 -12z m507 -735 c-1 -103 -2 -16 -2 193
0 209 1 293 2 187 2 -106 2 -277 0 -380z m-1385 281 c132 -89 152 -286 39
-399 -44 -45 -90 -64 -152 -64 -226 0 -313 313 -127 459 63 48 171 50 240 4z
m410 -219 c28 -17 -17 -65 -77 -82 -28 -8 -45 -21 -57 -42 -13 -23 -24 -31
-40 -28 -20 3 -24 12 -32 60 -8 48 -6 61 9 84 17 26 18 27 103 20 47 -4 90
-10 94 -12z m-1934 -340 c56 -6 62 -9 62 -30 0 -28 -39 -60 -84 -68 -23 -4
-43 -18 -61 -41 -48 -64 -85 -36 -85 65 0 41 4 52 27 70 19 15 36 20 53 16 14
-3 53 -9 88 -12z"/>
<path d="M5054 2736 c-32 -14 -74 -53 -74 -68 0 -5 13 6 28 23 18 20 45 36 77
44 30 8 40 14 25 14 -14 0 -39 -6 -56 -13z"/>
<path d="M5068 2713 c7 -3 16 -2 19 1 4 3 -2 6 -13 5 -11 0 -14 -3 -6 -6z"/>
<path d="M5128 2713 c7 -3 16 -2 19 1 4 3 -2 6 -13 5 -11 0 -14 -3 -6 -6z"/>
<path d="M5206 2693 c10 -16 21 -50 25 -78 l6 -50 2 44 c1 39 -29 111 -46 111
-3 0 3 -12 13 -27z"/>
<path d="M5002 2655 c-14 -31 -15 -65 -2 -85 6 -10 8 -4 4 21 -4 21 -1 46 6
58 6 13 10 25 7 27 -2 2 -9 -7 -15 -21z"/>
<path d="M3963 2615 c0 -27 2 -38 4 -22 2 15 2 37 0 50 -2 12 -4 0 -4 -28z"/>
<path d="M5205 2610 c0 -21 3 -36 8 -33 4 2 7 17 7 33 0 16 -3 31 -7 33 -5 3
-8 -12 -8 -33z"/>
<path d="M4288 2603 c6 -2 18 -2 25 0 6 3 1 5 -13 5 -14 0 -19 -2 -12 -5z"/>
<path d="M4970 2594 c0 -10 5 -26 10 -34 8 -11 9 -7 4 15 -8 37 -14 45 -14 19z"/>
<path d="M4208 2593 c12 -2 30 -2 40 0 9 3 -1 5 -23 4 -22 0 -30 -2 -17 -4z"/>
<path d="M4822 2570 c0 -14 2 -19 5 -12 2 6 2 18 0 25 -3 6 -5 1 -5 -13z"/>
<path d="M5216 2543 c-6 -14 -5 -15 5 -6 7 7 10 15 7 18 -3 3 -9 -2 -12 -12z"/>
<path d="M5010 2546 c0 -2 8 -10 18 -17 15 -13 16 -12 3 4 -13 16 -21 21 -21
13z"/>
<path d="M4812 2515 c0 -16 2 -22 5 -12 2 9 2 23 0 30 -3 6 -5 -1 -5 -18z"/>
<path d="M4996 2527 c2 -7 14 -19 27 -26 21 -13 21 -12 -2 13 -27 29 -33 32
-25 13z"/>
<path d="M5183 2509 c-6 -6 -32 -16 -59 -24 -28 -7 -39 -14 -26 -14 27 -1 87
22 96 38 9 14 3 14 -11 0z"/>
<path d="M4803 2435 c0 -22 2 -30 4 -17 2 12 2 30 0 40 -3 9 -5 -1 -4 -23z"/>
<path d="M4793 2340 c0 -25 2 -35 4 -22 2 12 2 32 0 45 -2 12 -4 2 -4 -23z"/>
<path d="M5396 2173 c-3 -3 -6 -18 -6 -32 0 -14 -11 -56 -23 -93 -14 -39 -20
-74 -16 -85 12 -29 10 -174 -2 -237 -13 -61 -2 -106 24 -106 36 0 105 114 132
217 29 109 12 230 -41 293 -29 34 -58 53 -68 43z"/>
</g>
</svg>
