<?xml version="1.0" standalone="no"?>
<!DOCTYPE svg PUBLIC "-//W3C//DTD SVG 20010904//EN"
 "http://www.w3.org/TR/2001/REC-SVG-20010904/DTD/svg10.dtd">
<svg version="1.0" xmlns="http://www.w3.org/2000/svg"
 width="529.000000pt" height="472.000000pt" viewBox="0 0 529.000000 472.000000"
 preserveAspectRatio="xMidYMid meet">

<g transform="translate(0.000000,472.000000) scale(0.100000,-0.100000)"
fill="#000000" stroke="none">
<path d="M1153 3580 c-31 -13 -62 -66 -69 -121 -5 -40 -11 -48 -38 -60 -18 -8
-38 -29 -49 -50 -16 -34 -16 -40 -2 -76 l16 -39 -45 -68 c-25 -38 -58 -105
-75 -150 -28 -80 -34 -109 -46 -227 l-6 -57 53 -47 c81 -73 133 -95 223 -95
l76 0 -25 33 c-72 94 -101 215 -93 389 6 153 17 191 58 209 69 28 86 76 48
139 l-21 35 42 37 c53 47 133 86 202 96 l53 8 -39 17 c-72 32 -215 46 -263 27z"/>
<path d="M2752 3508 c-30 -30 11 -85 44 -57 25 21 11 69 -21 69 -6 0 -16 -5
-23 -12z m34 -18 c16 0 19 -26 5 -35 -12 -6 -25 13 -28 40 -1 11 1 14 3 8 3
-7 12 -13 20 -13z"/>
<path d="M3046 3504 c-9 -8 -16 -19 -16 -24 0 -9 28 -40 36 -40 17 0 44 23 44
38 0 38 -37 53 -64 26z m34 -29 c-9 -22 -13 -25 -25 -15 -17 14 -11 30 11 30
8 0 14 5 14 12 0 6 2 9 5 6 3 -3 1 -18 -5 -33z"/>
<path d="M2892 3414 c-28 -20 -28 -35 3 -64 21 -20 29 -22 49 -12 36 16 44 52
16 74 -27 22 -39 22 -68 2z"/>
<path d="M1263 3313 c9 -2 23 -2 30 0 6 3 -1 5 -18 5 -16 0 -22 -2 -12 -5z"/>
<path d="M1480 3266 c0 -2 7 -7 16 -10 8 -3 12 -2 9 4 -6 10 -25 14 -25 6z"/>
<path d="M1520 3246 c0 -2 7 -7 16 -10 8 -3 12 -2 9 4 -6 10 -25 14 -25 6z"/>
<path d="M1623 3169 c-6 -68 -50 -170 -99 -231 l-22 -27 -16 22 c-9 12 -1 -7
16 -43 17 -36 41 -94 53 -129 l22 -64 27 29 c76 81 119 171 131 279 l7 60 -59
64 c-53 57 -59 61 -60 40z"/>
<path d="M2625 2580 c-77 -3 -148 -9 -158 -14 -31 -15 -47 -61 -47 -134 l0
-69 -396 -7 c-229 -4 -405 -11 -415 -17 -48 -25 -51 -43 -53 -324 l-1 -264
-40 -3 c-35 -3 -40 -6 -43 -30 -4 -38 -42 -40 -42 -3 0 25 -1 25 -91 25 -79 0
-90 2 -85 16 3 9 6 128 6 265 l0 249 70 0 c57 0 74 4 90 20 25 25 25 55 0 80
-19 19 -33 20 -213 20 -215 0 -237 -6 -237 -60 0 -43 31 -60 112 -60 l68 0 0
-259 c0 -284 1 -288 60 -279 26 4 30 1 30 -19 0 -20 -5 -23 -40 -23 -36 0 -40
3 -40 25 0 25 -1 25 -90 25 -90 0 -90 0 -90 -26 0 -22 -4 -25 -28 -22 -19 2
-28 9 -30 26 -3 20 -8 22 -73 22 l-69 0 0 350 c0 337 1 351 20 370 19 19 33
20 393 20 402 0 412 -1 419 -52 2 -13 11 -24 21 -26 28 -6 21 42 -12 77 l-29
31 -392 0 -392 0 -29 -29 -29 -29 0 -340 c0 -186 -3 -367 -6 -401 -7 -59 -8
-61 -36 -61 l-29 0 3 -157 3 -158 500 -6 c275 -4 508 -5 518 -2 12 3 17 15 17
44 l0 39 53 1 c28 1 152 0 273 -1 l221 -2 5 31 c3 17 3 56 0 85 l-4 53 -47
-14 c-44 -15 -168 -19 -403 -15 l-88 2 0 50 c0 48 -2 51 -29 56 -27 6 -30 11
-33 48 -3 40 -4 41 -40 44 l-38 3 1 259 c0 244 1 260 20 284 l21 26 391 -2
392 -3 3 -125 c4 -161 2 -167 -47 -172 -37 -3 -39 -2 -60 44 -25 55 -90 122
-146 151 -26 13 -66 22 -116 25 -67 4 -84 1 -132 -21 -151 -69 -228 -243 -178
-405 27 -88 80 -157 152 -197 49 -27 63 -30 144 -30 99 0 125 9 203 73 l42 34
0 -26 0 -26 248 -2 247 -3 3 -22 3 -23 260 0 259 0 0 33 c0 17 2 188 3 379 l2
348 28 25 c22 21 38 26 77 27 l50 0 0 63 c0 58 -2 65 -30 89 l-31 25 -310 1
c-171 0 -314 1 -318 3 -3 1 -69 0 -146 -3z m245 -106 c0 -39 -66 -78 -115 -68
-25 4 -43 1 -60 -10 -13 -9 -33 -16 -43 -16 -27 0 -50 -21 -56 -50 -7 -41 -16
-58 -34 -62 -36 -10 -42 2 -42 86 0 128 -3 126 191 126 87 0 159 -3 159 -6z
m-766 -368 c146 -61 163 -291 28 -377 -122 -77 -263 1 -288 157 -23 148 128
275 260 220z m324 -192 c37 -5 52 -11 52 -22 0 -24 -31 -52 -56 -52 -13 0 -39
-15 -59 -36 -43 -43 -55 -37 -62 29 -10 83 9 94 125 81z m-1534 -305 c21 -19
-12 -58 -60 -70 -32 -8 -49 -19 -57 -36 -10 -22 -51 -42 -63 -30 -3 3 -8 32
-11 65 -5 54 -3 61 18 76 19 13 37 15 94 10 39 -3 74 -10 79 -15z"/>
<path d="M4243 2512 c-21 -21 -47 -54 -58 -75 -12 -23 -27 -37 -40 -38 -11 0
-15 -3 -9 -5 7 -3 9 -15 6 -26 -4 -18 -2 -20 14 -14 64 25 191 33 274 16 25
-4 46 -7 48 -6 7 7 -57 113 -89 148 -50 53 -94 53 -146 0z"/>
<path d="M3638 2393 c89 -2 235 -2 325 0 89 1 16 3 -163 3 -179 0 -252 -2
-162 -3z"/>
<path d="M3470 2343 c-58 -9 -69 -15 -89 -47 -20 -32 -21 -46 -21 -385 l0
-351 -25 0 c-23 0 -25 -4 -25 -44 0 -33 6 -52 24 -73 l24 -28 348 -3 c304 -2
351 -5 366 -19 17 -15 19 -15 36 0 14 13 38 17 101 17 78 0 82 -1 91 -25 12
-31 34 -32 47 -2 18 38 51 225 57 320 5 67 3 94 -9 116 -25 49 -81 56 -122 15
-25 -25 -26 -27 -21 -150 3 -68 3 -124 1 -124 -13 0 -72 36 -96 59 -16 14 -27
20 -25 12 2 -7 -3 -16 -11 -19 -11 -3 -12 3 -7 31 5 25 2 46 -9 66 -8 17 -20
53 -26 81 -10 48 -13 51 -35 46 -18 -5 -24 -2 -24 11 0 27 -42 80 -80 102 -19
10 -57 22 -85 26 -70 10 -95 28 -95 68 0 48 24 77 64 77 39 0 76 -35 76 -71 0
-62 67 -92 110 -49 26 26 25 69 -1 125 -91 193 -353 150 -377 -61 -12 -109 60
-191 183 -209 72 -11 85 -20 85 -61 0 -48 -44 -94 -83 -87 -33 6 -57 38 -57
73 0 61 -82 94 -114 48 -19 -26 -20 -49 -5 -101 13 -47 72 -115 116 -134 63
-26 142 -12 196 35 16 14 17 12 17 -26 0 -37 -3 -42 -27 -48 -32 -9 -517 1
-532 11 -8 4 -11 115 -11 356 1 334 1 350 20 369 18 18 34 20 180 20 106 0
160 -4 160 -11 0 -5 4 -8 8 -5 5 3 82 6 172 6 90 1 169 4 177 7 7 3 13 14 13
24 0 18 -12 19 -317 18 -175 -1 -329 -3 -343 -6z"/>
<path d="M4229 2283 c-13 -16 -12 -17 4 -4 9 7 17 15 17 17 0 8 -8 3 -21 -13z"/>
<path d="M4217 2243 c3 -7 6 -13 8 -13 2 0 5 6 8 13 3 8 -1 14 -8 14 -7 0 -11
-6 -8 -14z"/>
<path d="M3343 2210 c0 -25 2 -35 4 -22 2 12 2 32 0 45 -2 12 -4 2 -4 -23z"/>
<path d="M3563 2193 c9 -2 23 -2 30 0 6 3 -1 5 -18 5 -16 0 -22 -2 -12 -5z"/>
<path d="M4071 2174 c0 -11 3 -14 6 -6 3 7 2 16 -1 19 -3 4 -6 -2 -5 -13z"/>
<path d="M4230 2156 c0 -2 8 -10 18 -17 15 -13 16 -12 3 4 -13 16 -21 21 -21
13z"/>
<path d="M4061 2124 c0 -11 3 -14 6 -6 3 7 2 16 -1 19 -3 4 -6 -2 -5 -13z"/>
<path d="M4310 2111 c23 -7 23 -8 5 -13 l-20 -5 20 1 c29 1 25 21 -5 23 l-25
2 25 -8z"/>
<path d="M4053 2050 c0 -25 2 -35 4 -22 2 12 2 32 0 45 -2 12 -4 2 -4 -23z"/>
<path d="M4051 1864 c0 -11 3 -14 6 -6 3 7 2 16 -1 19 -3 4 -6 -2 -5 -13z"/>
<path d="M4546 1778 c-23 -86 -28 -388 -7 -396 19 -7 48 29 84 108 27 56 31
77 31 150 1 65 -4 93 -18 120 -20 37 -55 80 -66 80 -4 0 -15 -28 -24 -62z"/>
</g>
</svg>
